<svg width="365" height="45" viewBox="0 0 365 45" fill="none" xmlns="http://www.w3.org/2000/svg">
<path d="M63.7178 34.0452V38.0003H52.9365V34.0452H63.7178ZM54.7676 16.6722V38.0003H49.626V16.6722H54.7676ZM80.5635 34.0452V38.0003H69.1963V34.0452H80.5635ZM71.0273 16.6722V38.0003H65.8857V16.6722H71.0273ZM79.0986 25.139V28.9622H69.1963V25.139H79.0986ZM80.6074 16.6722V20.6419H69.1963V16.6722H80.6074ZM91.7109 21.1546L86.5107 38.0003H80.9883L88.8252 16.6722H92.3262L91.7109 21.1546ZM96.0176 38.0003L90.8027 21.1546L90.1289 16.6722H93.6738L101.555 38.0003H96.0176ZM95.8125 30.0462V34.0159H84.8701V30.0462H95.8125ZM120.935 16.6722V38.0003H115.808L108.264 24.7288V38.0003H103.122V16.6722H108.264L115.808 29.9437V16.6722H120.935ZM131.115 38.0003H126.384L126.413 34.0452H131.115C132.092 34.0452 132.917 33.8109 133.591 33.3421C134.274 32.8734 134.792 32.1751 135.144 31.2474C135.505 30.3099 135.686 29.1575 135.686 27.7903V26.8675C135.686 25.8421 135.583 24.9437 135.378 24.1722C135.183 23.3909 134.89 22.7415 134.499 22.2239C134.108 21.6966 133.62 21.3011 133.034 21.0374C132.458 20.7737 131.794 20.6419 131.042 20.6419H126.296V16.6722H131.042C132.487 16.6722 133.811 16.9212 135.012 17.4193C136.223 17.9075 137.268 18.6107 138.146 19.5286C139.035 20.4368 139.719 21.5159 140.197 22.7659C140.686 24.0062 140.93 25.3831 140.93 26.8968V27.7903C140.93 29.2943 140.686 30.6712 140.197 31.9212C139.719 33.1712 139.04 34.2503 138.161 35.1585C137.282 36.0667 136.242 36.7698 135.041 37.2679C133.85 37.7562 132.541 38.0003 131.115 38.0003ZM129.328 16.6722V38.0003H124.187V16.6722H129.328ZM143.61 16.6722H152.004C153.645 16.6722 155.07 16.9163 156.281 17.4046C157.492 17.8929 158.425 18.6155 159.079 19.5726C159.743 20.5296 160.075 21.7112 160.075 23.1175C160.075 24.3382 159.885 25.3587 159.504 26.179C159.123 26.9993 158.591 27.678 157.907 28.2151C157.233 28.7425 156.447 29.1771 155.549 29.5189L153.864 30.471H146.818L146.789 26.5013H152.004C152.658 26.5013 153.2 26.3841 153.63 26.1497C154.06 25.9153 154.382 25.5833 154.597 25.1536C154.821 24.7142 154.934 24.1917 154.934 23.5862C154.934 22.971 154.821 22.4437 154.597 22.0042C154.372 21.5648 154.04 21.2278 153.601 20.9935C153.171 20.7591 152.639 20.6419 152.004 20.6419H148.752V38.0003H143.61V16.6722ZM155.285 38.0003L150.568 28.5667L156.018 28.5374L160.793 37.7806V38.0003H155.285ZM181.228 26.9114V27.7757C181.228 29.4066 180.998 30.8714 180.539 32.1702C180.09 33.4593 179.45 34.5628 178.62 35.4808C177.79 36.389 176.809 37.0872 175.676 37.5755C174.543 38.054 173.293 38.2933 171.926 38.2933C170.549 38.2933 169.289 38.054 168.146 37.5755C167.014 37.0872 166.027 36.389 165.188 35.4808C164.357 34.5628 163.713 33.4593 163.254 32.1702C162.805 30.8714 162.58 29.4066 162.58 27.7757V26.9114C162.58 25.2806 162.805 23.8157 163.254 22.5169C163.713 21.2181 164.353 20.1146 165.173 19.2064C166.003 18.2884 166.984 17.5901 168.117 17.1116C169.26 16.6234 170.52 16.3792 171.896 16.3792C173.264 16.3792 174.514 16.6234 175.646 17.1116C176.789 17.5901 177.775 18.2884 178.605 19.2064C179.436 20.1146 180.08 21.2181 180.539 22.5169C180.998 23.8157 181.228 25.2806 181.228 26.9114ZM176.013 27.7757V26.8821C176.013 25.8275 175.92 24.8997 175.734 24.0989C175.559 23.2884 175.295 22.6097 174.943 22.0628C174.592 21.5159 174.157 21.1058 173.64 20.8323C173.132 20.5491 172.551 20.4075 171.896 20.4075C171.213 20.4075 170.617 20.5491 170.109 20.8323C169.602 21.1058 169.177 21.5159 168.835 22.0628C168.493 22.6097 168.234 23.2884 168.059 24.0989C167.893 24.8997 167.81 25.8275 167.81 26.8821V27.7757C167.81 28.8206 167.893 29.7484 168.059 30.5589C168.234 31.3597 168.493 32.0384 168.835 32.595C169.187 33.1517 169.616 33.5716 170.124 33.8548C170.642 34.138 171.242 34.2796 171.926 34.2796C172.58 34.2796 173.161 34.138 173.669 33.8548C174.177 33.5716 174.602 33.1517 174.943 32.595C175.295 32.0384 175.559 31.3597 175.734 30.5589C175.92 29.7484 176.013 28.8206 176.013 27.7757ZM203.493 30.7786H208.62C208.552 32.263 208.151 33.5716 207.419 34.7044C206.687 35.8372 205.671 36.721 204.372 37.3558C203.083 37.9808 201.56 38.2933 199.802 38.2933C198.376 38.2933 197.102 38.054 195.979 37.5755C194.865 37.097 193.918 36.4085 193.137 35.5101C192.365 34.6116 191.774 33.5228 191.364 32.2435C190.964 30.9642 190.764 29.5237 190.764 27.9222V26.765C190.764 25.1634 190.974 23.723 191.394 22.4437C191.823 21.1546 192.429 20.0609 193.21 19.1624C194.001 18.2542 194.948 17.5609 196.052 17.0823C197.155 16.6038 198.381 16.3646 199.729 16.3646C201.584 16.3646 203.151 16.6966 204.431 17.3607C205.71 18.0247 206.701 18.9378 207.404 20.0999C208.107 21.2523 208.522 22.5657 208.649 24.0403H203.522C203.503 23.2396 203.366 22.5706 203.112 22.0335C202.858 21.4866 202.458 21.0765 201.911 20.803C201.364 20.5296 200.637 20.3929 199.729 20.3929C199.094 20.3929 198.542 20.5101 198.073 20.7444C197.604 20.9788 197.214 21.3499 196.901 21.8577C196.589 22.3655 196.354 23.0247 196.198 23.8353C196.052 24.636 195.979 25.6028 195.979 26.7357V27.9222C195.979 29.055 196.047 30.0218 196.184 30.8226C196.32 31.6234 196.54 32.2776 196.843 32.7855C197.146 33.2933 197.536 33.6693 198.015 33.9134C198.503 34.1478 199.099 34.265 199.802 34.265C200.583 34.265 201.242 34.1429 201.779 33.8987C202.316 33.6448 202.731 33.264 203.024 32.7562C203.317 32.2386 203.474 31.5794 203.493 30.7786ZM220.09 21.1546L214.89 38.0003H209.367L217.204 16.6722H220.705L220.09 21.1546ZM224.396 38.0003L219.182 21.1546L218.508 16.6722H222.053L229.934 38.0003H224.396ZM224.191 30.0462V34.0159H213.249V30.0462H224.191ZM234.05 16.6722H238.239L243 31.511L247.761 16.6722H251.95L244.699 38.0003H241.301L234.05 16.6722ZM231.501 16.6722H235.837L236.643 33.0198V38.0003H231.501V16.6722ZM250.163 16.6722H254.514V38.0003H249.357V33.0198L250.163 16.6722ZM263.273 16.6722V38.0003H258.146V16.6722H263.273ZM280.983 34.0452V38.0003H270.202V34.0452H280.983ZM272.033 16.6722V38.0003H266.892V16.6722H272.033ZM300.261 26.9114V27.7757C300.261 29.4066 300.031 30.8714 299.572 32.1702C299.123 33.4593 298.483 34.5628 297.653 35.4808C296.823 36.389 295.842 37.0872 294.709 37.5755C293.576 38.054 292.326 38.2933 290.959 38.2933C289.582 38.2933 288.322 38.054 287.18 37.5755C286.047 37.0872 285.061 36.389 284.221 35.4808C283.391 34.5628 282.746 33.4593 282.287 32.1702C281.838 30.8714 281.613 29.4066 281.613 27.7757V26.9114C281.613 25.2806 281.838 23.8157 282.287 22.5169C282.746 21.2181 283.386 20.1146 284.206 19.2064C285.036 18.2884 286.018 17.5901 287.15 17.1116C288.293 16.6234 289.553 16.3792 290.93 16.3792C292.297 16.3792 293.547 16.6234 294.68 17.1116C295.822 17.5901 296.809 18.2884 297.639 19.2064C298.469 20.1146 299.113 21.2181 299.572 22.5169C300.031 23.8157 300.261 25.2806 300.261 26.9114ZM295.046 27.7757V26.8821C295.046 25.8275 294.953 24.8997 294.768 24.0989C294.592 23.2884 294.328 22.6097 293.977 22.0628C293.625 21.5159 293.19 21.1058 292.673 20.8323C292.165 20.5491 291.584 20.4075 290.93 20.4075C290.246 20.4075 289.65 20.5491 289.143 20.8323C288.635 21.1058 288.21 21.5159 287.868 22.0628C287.526 22.6097 287.268 23.2884 287.092 24.0989C286.926 24.8997 286.843 25.8275 286.843 26.8821V27.7757C286.843 28.8206 286.926 29.7484 287.092 30.5589C287.268 31.3597 287.526 32.0384 287.868 32.595C288.22 33.1517 288.649 33.5716 289.157 33.8548C289.675 34.138 290.275 34.2796 290.959 34.2796C291.613 34.2796 292.194 34.138 292.702 33.8548C293.21 33.5716 293.635 33.1517 293.977 32.595C294.328 32.0384 294.592 31.3597 294.768 30.5589C294.953 29.7484 295.046 28.8206 295.046 27.7757Z" fill="#DEDEDE"/>
<path d="M0 0.000305176L8 36.0941L39 45.0003H0V0.000305176Z" fill="#C7404A"/>
<path d="M39 4.00031L26.9439 24.4164L39 45.0003L17 24.4164L39 4.00031Z" fill="#C7404A"/>
</svg>
